<svg width="68" height="67" viewBox="0 0 68 67" fill="none" xmlns="http://www.w3.org/2000/svg">
<g clip-path="url(#clip0_6057_666)">
<path d="M50.657 0H33.5578C31.4988 0 29.8291 1.66677 29.8291 3.72222V23.0135C29.8291 24.001 30.222 24.9473 30.9209 25.6459L43.6513 38.3541C44.3502 39.0518 44.743 39.999 44.743 40.9865V63.2778C44.743 65.3332 46.4127 67 48.4717 67H63.3865C65.4456 67 67.1152 65.3332 67.1152 63.2778V16.4305C67.1152 15.443 66.7224 14.4967 66.0235 13.7981L53.294 1.08988C52.5951 0.392181 51.6462 0 50.657 0Z" fill="#FD7E14"/>
<path d="M18.6435 0H3.7287C1.66967 0 0 1.66677 0 3.72222V50.5686C0 51.5561 0.392864 52.5024 1.09178 53.201L13.8222 65.9092C14.5211 66.6069 15.4699 66.9991 16.4591 66.9991H33.5583C35.6173 66.9991 37.287 65.3324 37.287 63.2769V44.0688C37.287 43.0813 36.8941 42.135 36.1952 41.4364L23.4649 28.7282C22.7659 28.0305 22.3731 27.0833 22.3731 26.0958V3.72222C22.3731 1.66677 20.7034 0 18.6444 0H18.6435Z" fill="#FD9843"/>
</g>
<defs>
<clipPath id="clip0_6057_666">
<rect width="67.1152" height="67" fill="white"/>
</clipPath>
</defs>
</svg>
